<?xml version="1.0" encoding="UTF-8"?>
<svg id="Calque_2" data-name="Calque 2" xmlns="http://www.w3.org/2000/svg" viewBox="0 0 417.49 117.25">
  <defs>
    <style>
      .cls-1 {
        fill: #a87fb7;
      }

      .cls-2 {
        fill: #d7ccbd;
      }

      .cls-3 {
        fill: #cdb3d5;
      }

      .cls-4 {
        fill: #4a80c1;
      }

      .cls-5 {
        fill: #8c5ca2;
      }

      .cls-6 {
        fill: #2e5e94;
      }
    </style>
  </defs>
  <g id="Calque_1-2" data-name="Calque 1">
    <g>
      <rect class="cls-6" y="2.87" width="395.32" height="114.38"/>
      <rect class="cls-4" x="3.57" y="2.86" width="391.6" height="110.97"/>
      <g>
        <polygon class="cls-2" points="408.13 2.74 391.79 1.05 384.72 .32 381.8 4.65 381.66 5.98 381.33 9.23 385.12 9.62 384.65 14.2 388.54 14.6 388.08 19.02 391.97 19.42 391.5 24 395.61 24.42 395.14 29 399.46 29.45 399.93 24.87 404.04 25.29 404.52 20.71 408.41 21.11 408.86 16.7 412.75 17.1 413.22 12.52 417.02 12.91 417.35 9.66 417.49 8.33 415.21 3.47 408.13 2.74"/>
        <g>
          <polygon class="cls-1" points="414.16 8.01 378.47 4.33 381.4 0 411.88 3.15 414.16 8.01"/>
          <rect class="cls-5" x="381.49" y="10.74" width="28.25" height="4.6" transform="translate(3.43 -40.54) rotate(5.89)"/>
          <rect class="cls-5" x="384.94" y="15.15" width="20.43" height="4.6" transform="translate(3.88 -40.47) rotate(5.89)"/>
          <rect class="cls-5" x="388.38" y="19.73" width="12.61" height="4.6" transform="translate(4.35 -40.39) rotate(5.89)"/>
          <rect class="cls-1" x="392.51" y="19.73" width="4.35" height="4.6" transform="translate(4.35 -40.39) rotate(5.89)"/>
          <rect class="cls-1" x="391.27" y="15.23" width="7.75" height="4.6" transform="translate(3.89 -40.46) rotate(5.89)"/>
          <rect class="cls-1" x="389" y="10.65" width="13.23" height="4.6" transform="translate(3.42 -40.54) rotate(5.89)"/>
          <rect class="cls-5" x="392.04" y="24.31" width="4.35" height="4.6" transform="translate(4.81 -40.32) rotate(5.89)"/>
          <rect class="cls-5" x="378.14" y="6.16" width="35.88" height="4.6" transform="translate(2.96 -40.61) rotate(5.89)"/>
          <rect class="cls-1" x="385.87" y="6.16" width="20.43" height="4.6" transform="translate(2.96 -40.61) rotate(5.89)"/>
          <polygon class="cls-3" points="406.48 7.22 386.16 5.12 388.47 .73 404.81 2.42 406.48 7.22"/>
          <rect class="cls-3" x="378.31" y="6.17" width="35.88" height="1.34" transform="translate(2.79 -40.63) rotate(5.89)"/>
        </g>
      </g>
    </g>
  </g>
</svg>